<svg width="271" height="208" viewBox="0 0 271 208" fill="none" xmlns="http://www.w3.org/2000/svg">
<g clip-path="url(#clip0)">
<path opacity="0.1" d="M23.5336 96.1358C19.7836 97.3631 16.2836 100.333 15.3386 104.453C14.2661 109.187 16.7361 113.97 17.0886 118.824C18.2411 134.755 -2.69389 145.996 0.291112 161.651C1.47861 167.865 6.27361 172.446 11.0011 176.215C18.5686 182.254 26.9636 187.586 36.2511 189.093C50.3611 191.38 65.1061 184.653 78.8236 188.906C89.8861 192.334 98.3511 202.387 109.339 206.097C117.704 208.922 126.711 207.807 135.409 206.665C140.086 206.051 145.001 205.34 148.784 202.297C155.826 196.632 156.251 185.447 160.961 177.43C168.229 165.055 184.164 162.638 197.526 165.043C210.889 167.447 223.856 173.375 237.394 172.874C240.286 172.772 243.254 172.343 245.774 170.808C248.841 168.94 250.916 165.651 252.749 162.395C264.169 142.109 270.531 118.511 270.984 94.7558C271.061 90.6509 270.929 86.3682 269.146 82.7342C266.896 78.1484 262.396 75.411 257.896 73.5626C247.126 69.1497 235.229 68.4359 224.671 63.4269C214.489 58.6007 206.239 50.1329 197.374 42.8898C179.791 28.5014 159.124 18.5434 137.494 14.0228C132.401 12.9584 127.116 12.197 122.056 13.4267C116.226 14.8443 111.201 18.7789 106.684 23.0115C94.6611 34.2818 85.0286 48.1769 73.9536 60.5241C66.3658 68.9777 58.0422 76.7381 49.0811 83.7134C44.9736 86.9117 40.6236 90.7085 36.0561 93.0728C31.8786 95.2342 27.9511 94.6907 23.5336 96.1358Z" fill="url(#paint0_linear)"/>
<path d="M253.637 104.25C248.137 103.098 237.725 100.937 225.94 98.5427C208.492 94.9988 203.94 108.413 203.94 108.413C203.94 115.245 181.19 143.586 181.19 143.586L174.405 128.359C175.447 128.52 176.513 128.448 177.525 128.149C181.41 126.986 183.33 122.596 183.952 118.586C184.881 112.547 184.032 106.368 181.51 100.804C180.352 98.2647 178.852 95.8754 177.922 93.2456C174 82.2107 180.795 69.4377 176.685 58.4454C174.987 53.9097 171.602 50.2306 169.262 45.9929C164.012 36.4632 164.237 24.5418 158.512 15.2851C153.142 6.60692 142.56 1.46265 132.422 2.60971C126.445 3.28593 122.172 5.42479 116.602 2.86017C111.9 0.701274 106.255 -1.71308 101.412 1.68805C97.2822 4.58828 96.5797 10.3011 94.3247 14.8167C90.3647 22.7485 80.9697 27.9254 79.8647 36.7237C79.5922 38.8926 79.8647 41.1417 79.2322 43.2355C77.4272 49.1536 69.5672 50.9018 66.3472 56.1838C63.1947 61.3531 66.3797 69.1697 72.2447 70.6599C74.7447 71.2961 77.4347 70.9104 79.9322 71.5841C82.2747 72.2102 84.5472 74.4042 84.1422 76.6958L78.9472 77.6425L63.9997 79.3055L61.6872 79.4508C61.6872 79.4508 61.6872 79.4908 61.6872 79.5635L61.5622 79.5785L61.6847 79.6787C61.6847 79.8565 61.6847 80.1345 61.6847 80.5002C57.4772 82.1506 50.6597 86.5561 48.0847 98.1119C47.4948 100.749 46.3028 103.214 44.6022 105.312C40.7697 110.046 34.4097 119.29 34.7647 128.164C35.2647 140.816 35.2647 145.878 51.9597 142.334C56.1772 141.44 60.7647 139.607 65.2672 137.368C65.5297 142.642 66.2122 147.814 67.6372 151.696C72.1897 164.096 62.5797 207.875 62.5797 207.875H155.387C155.387 207.875 147.547 182.063 139.962 168.905C134.59 159.583 136.575 153.945 138.19 151.448C139.59 149.326 140.636 146.99 141.287 144.531C141.562 143.451 141.83 142.226 142.06 140.869C143.767 142.269 145.59 143.526 147.652 144.278C149.562 144.971 151.735 145.162 153.667 144.626C157.622 149.469 162.04 154.782 166.767 160.302C184.975 181.557 190.032 168.399 190.032 168.399C190.032 168.399 208.492 133.225 211.032 122.596C213.572 111.967 219.125 112.473 219.125 112.473C234.345 116.327 247.835 110.732 254.102 107.366C254.407 107.204 254.654 106.951 254.809 106.643C254.965 106.334 255.021 105.985 254.97 105.644C254.919 105.302 254.763 104.984 254.524 104.735C254.286 104.485 253.976 104.316 253.637 104.25ZM65.8572 110.609C67.127 109.159 68.2182 107.562 69.1072 105.851H69.1547C68.6938 107.62 68.0996 109.351 67.3772 111.03C65.9597 111.303 65.1047 111.446 65.1047 111.446L65.8572 110.609Z" fill="url(#paint1_linear)"/>
<path d="M95.7498 -0.0604569C91.6673 2.80972 90.9723 8.4549 88.7498 12.933C84.8348 20.7821 75.5473 25.9089 74.4548 34.6146C74.1848 36.7609 74.4548 38.9874 73.8298 41.0562C72.0473 46.9142 64.2749 48.6449 61.0799 53.8718C57.9624 58.986 61.1124 66.7224 66.9099 68.1976C69.3874 68.8287 72.0399 68.4481 74.5098 69.1117C76.9798 69.7754 79.3723 72.1998 78.5548 74.6217C77.9473 76.4249 75.8048 77.4518 75.4148 79.3151C75.0748 80.918 76.1649 82.4458 77.2198 83.693C78.5598 85.2709 79.9898 86.8237 81.7823 87.858C86.7123 90.7032 92.8623 88.9951 98.5473 88.8073C105.425 88.6027 112.168 90.75 117.665 94.8957C119.237 96.0904 120.717 97.4704 121.692 99.191C124.87 104.796 121.865 111.831 122.54 118.24C123.305 125.523 128.735 131.369 134.217 136.21C136.407 138.144 138.717 140.05 141.467 141.049C144.217 142.048 147.505 141.993 149.817 140.21C152.247 138.337 153.092 135.018 153.107 131.945C153.122 128.872 152.477 125.814 152.632 122.746C152.707 121.243 153.255 119.458 154.717 119.162C155.45 119.014 156.192 119.312 156.86 119.648C161.525 121.997 166 126.598 171 125.105C174.842 123.956 176.75 119.61 177.355 115.641C178.272 109.666 177.433 103.554 174.94 98.0489C173.795 95.5444 172.312 93.1726 171.392 90.5679C167.527 79.6257 174.24 66.9804 170.18 56.1083C168.502 51.6202 165.155 47.9786 162.842 43.7836C157.642 34.3516 157.875 22.5528 152.212 13.3913C146.905 4.80081 136.44 -0.288368 126.42 0.846177C120.51 1.51488 116.287 3.6337 110.78 1.09663C106.13 -1.03471 100.55 -3.43654 95.7498 -0.0604569Z" fill="#141720"/>
<path d="M140.644 83.2287C140.644 83.2287 156.894 78.2197 163.394 107.272L179.894 144.339C179.894 144.339 202.394 116.288 202.394 109.526C202.394 109.526 206.894 96.2522 224.144 99.7585C235.797 102.128 246.079 104.267 251.527 105.406C251.858 105.475 252.16 105.645 252.392 105.891C252.624 106.138 252.774 106.451 252.823 106.786C252.872 107.121 252.817 107.464 252.665 107.767C252.513 108.07 252.272 108.318 251.974 108.479C245.779 111.81 232.442 117.348 217.394 113.533C217.394 113.533 211.894 113.032 209.394 123.551C206.894 134.07 188.644 168.883 188.644 168.883C188.644 168.883 183.644 181.907 165.644 160.869C147.644 139.831 134.144 121.798 134.144 121.798L140.644 83.2287Z" fill="#F89D8F"/>
<path d="M140.376 86.7814L138.221 93.8917L136.091 100.924L131.876 114.832L111.876 118.589L105.358 114.424L97.3756 109.322L90.4931 104.563L80.3756 97.5508L72.1256 80.2697C72.1256 80.2697 74.4006 79.8664 81.4931 78.5741L91.3756 76.7633C98.2006 75.5111 100.781 70.4219 101.568 65.2426C102.511 59.0414 100.876 52.72 100.876 52.72H126.126C126.126 52.72 128.951 56.9777 128.508 64.3309C128.369 66.5069 127.989 68.6606 127.376 70.7525C125.156 78.4514 130.168 81.021 133.568 81.855C134.487 82.0887 135.428 82.2289 136.376 82.2733L140.376 86.7814Z" fill="#F89D8F"/>
<path opacity="0.1" d="M128.5 64.331C124.63 67.199 119.982 68.8222 115.172 68.9859C110.361 69.1496 105.614 67.846 101.56 65.2477C102.502 59.0465 100.867 52.7251 100.867 52.7251H126.117C126.117 52.7251 128.95 56.9652 128.5 64.331Z" fill="black"/>
<path d="M114.242 72C127.359 72 137.992 57.3856 137.992 44.2451C137.992 31.1047 127.359 20.4522 114.242 20.4522C101.125 20.4522 90.4922 31.1047 90.4922 44.2451C90.4922 57.3856 101.125 72 114.242 72Z" fill="#F89D8F"/>
<path opacity="0.1" d="M140.376 86.7815L138.221 93.8918L136.091 100.925L131.876 114.832L111.876 118.589L105.358 114.424L97.3756 109.322L90.4931 104.564L80.3756 97.5509L72.1256 80.2698C72.1256 80.2698 74.4006 79.8665 81.4931 78.5742C86.4931 92.5118 92.8181 97.7012 98.5256 99.3842C101.938 100.386 105.128 100.136 107.671 99.7599C110.939 99.236 114.28 99.4067 117.478 100.261C125.153 102.4 129.193 98.3048 131.316 93.1079C132.886 89.2635 133.406 84.813 133.566 81.8376C134.485 82.0713 135.426 82.2114 136.373 82.2559L140.376 86.7815Z" fill="black"/>
<path d="M62.374 208C62.374 208 71.874 164.672 67.374 152.4C66.0865 148.893 65.4115 144.305 65.109 139.557C64.359 127.718 65.874 114.832 65.874 114.832C66.089 114.414 66.2915 113.998 66.4865 113.58C66.9865 112.511 67.4265 111.466 67.8065 110.444C73.164 96.0031 66.499 86.3883 63.119 82.7117C62.5769 82.1083 61.9921 81.545 61.369 81.0261L80.494 78.8973C85.5215 93.3508 91.969 98.683 97.769 100.391C101.182 101.393 104.372 101.142 106.914 100.767C110.182 100.243 113.524 100.413 116.722 101.268C124.397 103.406 128.437 99.3116 130.559 94.1147C133.194 87.6631 132.869 79.5159 132.869 79.5159L143.869 82.7718C143.869 82.7718 142.899 88.8077 142.021 96.7395C141.814 98.6003 141.611 100.564 141.429 102.58C140.679 110.99 140.234 120.289 141.119 126.601C142.018 132.838 141.698 139.19 140.177 145.305C139.534 147.738 138.501 150.051 137.116 152.152C135.519 154.621 133.556 160.204 138.866 169.433C146.366 182.457 154.116 208.003 154.116 208.003L62.374 208Z" fill="#9347B2"/>
<path d="M143.75 82.8995C143.75 82.8995 152.832 97.1753 140.915 109.447C128.997 121.72 133.75 104.438 133.75 104.438L136.75 84.4022L143.75 82.8995Z" fill="#9347B2"/>
<path opacity="0.1" d="M63.1204 82.7115C63.7983 82.4967 64.4933 82.3408 65.1979 82.2457C68.4479 83.7985 70.2479 88.1087 71.2254 92.6093C71.8779 95.6619 71.9115 98.8146 71.3245 101.88C70.7374 104.946 69.5416 107.863 67.8079 110.457C73.1654 96.003 66.5004 86.3881 63.1204 82.7115Z" fill="black"/>
<path opacity="0.1" d="M141.435 102.583C136.098 102.936 129.125 102.31 129.125 102.31C130.065 106.617 128.125 109.983 126.125 112.177C125.36 113.026 124.395 113.669 123.318 114.046C122.241 114.424 121.086 114.524 119.96 114.339C108.425 112.335 90.8852 122.854 90.8852 122.854C90.8852 122.854 78.3402 133.005 65.1102 139.564C64.3602 127.725 65.8752 114.84 65.8752 114.84C66.0902 114.421 66.2927 114.006 66.4877 113.587C71.8327 112.586 91.2527 108.628 95.1252 102.818C95.7002 101.954 96.6252 101.145 97.7752 100.394C101.083 98.2497 106.375 96.5692 111.408 95.342C117.671 93.8028 124.158 93.3907 130.565 94.1248C133.316 94.4405 136.038 94.9723 138.705 95.7152C139.87 96.0383 140.995 96.3864 142.028 96.7495C144.858 97.7513 147.003 98.8709 147.375 100.063C147.878 101.666 145.025 102.347 141.435 102.583Z" fill="black"/>
<path opacity="0.1" d="M136.09 100.924C132.242 100.859 128.875 100.556 128.875 100.556C129.815 104.864 127.875 108.23 125.875 110.424C125.11 111.273 124.145 111.915 123.068 112.293C121.99 112.671 120.836 112.771 119.71 112.586C115.362 111.834 110.16 112.859 105.367 114.424L97.3748 109.322L90.4923 104.564C92.4923 103.489 94.0398 102.309 94.8748 101.057C97.0948 97.7212 104.375 95.2392 111.157 93.5813C120.058 91.3826 129.371 91.4895 138.22 93.8918L138.455 93.9544C142.802 95.1691 146.617 96.6743 147.125 98.3023C147.855 100.644 141.5 101.02 136.09 100.924Z" fill="black"/>
<path d="M64.9471 80.9886C64.9471 80.9886 51.8696 82.321 48.0571 99.3041C47.4677 101.944 46.2785 104.412 44.5821 106.517C40.7921 111.208 34.5246 120.342 34.8746 129.11C35.3746 141.633 35.3746 146.642 51.8746 143.136C68.3746 139.629 90.6246 121.597 90.6246 121.597C90.6246 121.597 108.165 111.095 119.7 113.081C120.826 113.267 121.98 113.166 123.057 112.788C124.134 112.411 125.1 111.768 125.865 110.92C127.865 108.726 129.817 105.36 128.865 101.052C128.865 101.052 148.365 102.805 147.115 98.7982C146.615 97.1702 142.792 95.665 138.445 94.4528C129.527 91.99 120.128 91.8606 111.147 94.0772C104.352 95.7377 97.0846 98.2196 94.8646 101.553C90.3646 108.315 64.8646 112.573 64.8646 112.573L65.6146 111.729C68.0364 108.989 69.7829 105.718 70.7137 102.179C71.6446 98.6404 71.734 94.932 70.9746 91.3522C69.9996 86.8516 68.2071 82.5414 64.9471 80.9886Z" fill="#F89D8F"/>
<path d="M61.5004 80.8958C61.5004 80.8958 60.7504 111.2 72.0004 106.692C83.2504 102.184 74.5004 80.8958 74.5004 80.8958L69.5004 80.3949L61.5004 80.8958Z" fill="#9347B2"/>
<path opacity="0.1" d="M93.0801 40.3094C100.349 38.6194 107.429 36.1965 114.21 33.0778C115.953 32.2765 117.829 31.2628 118.474 29.4565C118.641 28.9904 118.743 28.4488 119.144 28.1567C119.484 27.9071 119.944 27.9184 120.365 27.9645C122.853 28.2529 125.111 29.5269 127.527 30.1869C129.944 30.847 132.907 30.7186 134.473 28.7581C136.321 26.4413 135.208 22.9665 133.523 20.5303C127.263 11.465 114.754 8.4672 103.945 10.5571C102.426 10.8501 100.894 11.2406 99.5936 12.0803C96.8401 13.8307 95.6108 17.1461 94.3642 20.166C91.9376 26.0239 77.5608 43.9119 93.0801 40.3094Z" fill="black"/>
<path d="M96.3398 38.1789C102.427 35.7584 108.253 32.7267 113.729 29.1301C115.137 28.206 116.632 27.08 116.955 25.4277C117.038 25.0014 117.056 24.5179 117.365 24.2118C117.628 23.9505 118.028 23.9 118.4 23.8848C120.597 23.8085 122.724 24.618 124.908 24.8737C127.092 25.1295 129.647 24.6293 130.748 22.7223C132.048 20.4691 130.626 17.5994 128.844 15.7062C122.222 8.65989 110.972 7.69946 101.865 10.9316C100.586 11.3852 99.3071 11.9251 98.2886 12.8245C96.1285 14.705 95.4967 17.7437 94.8111 20.5282C93.4737 25.9306 83.3434 43.3418 96.3398 38.1789Z" fill="#141720"/>
<path d="M212.655 102.42C215.024 102.42 216.945 100.495 216.945 98.1218C216.945 95.7482 215.024 93.824 212.655 93.824C210.286 93.824 208.365 95.7482 208.365 98.1218C208.365 100.495 210.286 102.42 212.655 102.42Z" fill="#FF8000"/>
<path d="M212.655 102.42C215.024 102.42 216.945 100.495 216.945 98.1218C216.945 95.7482 215.024 93.824 212.655 93.824C210.286 93.824 208.365 95.7482 208.365 98.1218C208.365 100.495 210.286 102.42 212.655 102.42Z" fill="#9347B2"/>
<path d="M49.29 39.5955C51.6593 39.5955 53.58 37.6713 53.58 35.2977C53.58 32.9242 51.6593 31 49.29 31C46.9207 31 45 32.9242 45 35.2977C45 37.6713 46.9207 39.5955 49.29 39.5955Z" fill="#9347B2"/>
<path opacity="0.05" d="M63.2499 112.703C63.2499 112.703 58.4999 115.23 57.7124 118.318C56.9249 121.406 55.9999 121.97 55.9999 121.97" fill="black"/>
<path opacity="0.05" d="M179.749 144.26C179.749 144.26 177.499 152.024 179.749 153.026V144.26Z" fill="black"/>
<path opacity="0.05" d="M67.4998 153.026C67.4998 153.026 86.9998 157.284 101.5 148.518H107.75C107.75 148.518 126.5 158.035 135.5 155.28" fill="black"/>
<path opacity="0.3" d="M34.5576 42.403C42.6579 42.403 49.2245 35.8209 49.2245 27.7015C49.2245 19.5821 42.6579 13 34.5576 13C26.4572 13 19.8906 19.5821 19.8906 27.7015C19.8906 35.8209 26.4572 42.403 34.5576 42.403Z" fill="#A04DAF"/>
<path opacity="0.3" d="M238.667 102.403C246.767 102.403 253.334 95.8209 253.334 87.7015C253.334 79.5821 246.767 73 238.667 73C230.567 73 224 79.5821 224 87.7015C224 95.8209 230.567 102.403 238.667 102.403Z" fill="#A04DAF"/>
<path d="M253.91 94.6239L241.005 82.6359C240.361 82.0384 239.352 82.0751 238.751 82.7179L211.97 111.338C211.369 111.981 211.403 112.986 212.046 113.584L224.951 125.571C225.595 126.169 226.604 126.132 227.205 125.489L253.986 96.8697C254.587 96.2269 254.554 95.2214 253.91 94.6239Z" fill="#3A3768"/>
<path d="M251.002 93.3887C250.933 93.3179 250.849 93.2625 250.757 93.2259C250.664 93.1894 250.565 93.1726 250.466 93.1765C250.366 93.1805 250.269 93.2051 250.179 93.2489C250.09 93.2928 250.011 93.3547 249.947 93.4309L249.844 93.5443C249.78 93.6203 249.7 93.6821 249.61 93.7256C249.521 93.769 249.423 93.7932 249.323 93.7965C249.223 93.7999 249.124 93.7823 249.032 93.7449C248.939 93.7076 248.856 93.6513 248.787 93.5797L242.327 87.5836C242.251 87.5201 242.189 87.4413 242.145 87.3524C242.102 87.2635 242.077 87.1664 242.073 87.0673C242.07 86.9683 242.087 86.8695 242.124 86.7773C242.161 86.6852 242.217 86.6017 242.288 86.5323L242.397 86.4164C242.468 86.347 242.524 86.2636 242.561 86.1714C242.598 86.0793 242.615 85.9805 242.612 85.8814C242.608 85.7824 242.584 85.6852 242.54 85.5963C242.496 85.5074 242.434 85.4286 242.358 85.3651L241.106 84.1951C240.969 84.0667 240.808 83.9668 240.632 83.9011C240.456 83.8353 240.268 83.805 240.08 83.8119C239.892 83.8188 239.707 83.8629 239.536 83.9414C239.365 84.02 239.211 84.1315 239.083 84.2696L213.591 111.518C213.462 111.655 213.361 111.816 213.294 111.992C213.228 112.167 213.197 112.354 213.203 112.542C213.21 112.729 213.253 112.913 213.332 113.083C213.41 113.254 213.521 113.407 213.66 113.534L224.928 123.997C225.065 124.124 225.226 124.223 225.401 124.289C225.576 124.354 225.763 124.384 225.95 124.378C226.137 124.371 226.322 124.327 226.492 124.25C226.663 124.172 226.817 124.061 226.944 123.925L252.451 96.6934C252.578 96.5565 252.677 96.396 252.743 96.2211C252.808 96.0462 252.838 95.8602 252.831 95.6739C252.825 95.4876 252.781 95.3045 252.703 95.1352C252.625 94.9658 252.515 94.8136 252.378 94.6871L251.002 93.3887Z" fill="url(#paint2_linear)"/>
<path d="M247.064 89.9979L245.312 88.3701C245.209 88.2741 245.046 88.28 244.95 88.3833L244.896 88.4405C244.8 88.5438 244.805 88.7054 244.908 88.8014L246.661 90.4291C246.764 90.5252 246.926 90.5193 247.023 90.4159L247.076 90.3588C247.173 90.2555 247.168 90.0939 247.064 89.9979Z" fill="#E6E8EC"/>
<path d="M247.336 91.0085C247.4 91.1812 247.592 91.2692 247.765 91.2051C247.939 91.141 248.028 90.9491 247.964 90.7765C247.9 90.6039 247.708 90.5158 247.534 90.5799C247.361 90.644 247.272 90.8359 247.336 91.0085Z" fill="#E6E8EC"/>
<path d="M233.81 96.8881C234.257 96.3976 235.017 96.3624 235.507 96.8095L242.39 103.084C242.697 103.363 242.719 103.838 242.44 104.145L242.171 104.439C242.04 104.583 242.05 104.806 242.194 104.937C242.351 105.08 242.347 105.327 242.187 105.465L242.104 105.537C241.931 105.686 241.674 105.683 241.506 105.529L241.326 105.366L233.888 98.5857C233.398 98.1387 233.362 97.3786 233.81 96.8881Z" fill="#FD749B"/>
<path d="M227.81 103.888C228.257 103.398 229.017 103.362 229.507 103.81L236.39 110.084C236.697 110.363 236.719 110.838 236.44 111.145L236.171 111.439C236.04 111.583 236.05 111.806 236.194 111.937C236.351 112.08 236.347 112.327 236.187 112.465L236.104 112.537C235.931 112.686 235.674 112.683 235.506 112.529L235.326 112.366L227.888 105.586C227.398 105.139 227.362 104.379 227.81 103.888Z" fill="#FD749B"/>
<path d="M216.59 108L230.158 120.653L226.816 124.236C226.439 124.64 225.806 124.662 225.403 124.286L213.297 112.997C212.893 112.62 212.871 111.987 213.248 111.584L216.59 108Z" fill="#DDDDDD"/>
<path d="M246.297 96.0606C246.705 95.5846 246.65 94.8678 246.174 94.4595L238.627 87.9849C238.329 87.7297 237.881 87.764 237.626 88.0615L237.408 88.316C237.273 88.4729 237.037 88.491 236.88 88.3564C236.708 88.2088 236.445 88.2469 236.322 88.4374L236.29 88.4869C236.174 88.6658 236.209 88.9025 236.37 89.0412L236.609 89.2465L244.695 96.1831C245.171 96.5914 245.888 96.5366 246.297 96.0606Z" fill="#281AC8"/>
<path d="M243.297 99.0606C243.705 98.5846 243.65 97.8678 243.174 97.4595L235.627 90.9849C235.329 90.7297 234.881 90.764 234.626 91.0615L234.408 91.316C234.273 91.4729 234.037 91.491 233.88 91.3564C233.708 91.2088 233.445 91.2469 233.322 91.4374L233.29 91.4869C233.174 91.6658 233.209 91.9025 233.37 92.0412L233.609 92.2465L241.695 99.1831C242.171 99.5914 242.888 99.5366 243.297 99.0606Z" fill="#281AC8"/>
<path d="M237.297 106.061C237.705 105.585 237.65 104.868 237.174 104.459L229.627 97.9849C229.329 97.7297 228.881 97.764 228.626 98.0615L228.408 98.316C228.273 98.4729 228.037 98.491 227.88 98.3564C227.708 98.2088 227.445 98.2469 227.322 98.4374L227.29 98.4869C227.174 98.6658 227.209 98.9025 227.37 99.0412L227.609 99.2465L235.695 106.183C236.171 106.591 236.888 106.537 237.297 106.061Z" fill="#281AC8"/>
</g>
<defs>
<linearGradient id="paint0_linear" x1="149.05" y1="-17.9134" x2="156.977" y2="327.838" gradientUnits="userSpaceOnUse">
<stop stop-color="#FD749B"/>
<stop offset="1" stop-color="#281AC8"/>
</linearGradient>
<linearGradient id="paint1_linear" x1="144.857" y1="207.875" x2="144.857" y2="5.10335e-06" gradientUnits="userSpaceOnUse">
<stop stop-color="#808080" stop-opacity="0.25"/>
<stop offset="0.54" stop-color="#808080" stop-opacity="0.12"/>
<stop offset="1" stop-color="#808080" stop-opacity="0.1"/>
</linearGradient>
<linearGradient id="paint2_linear" x1="260.205" y1="95.8249" x2="189.628" y2="125.261" gradientUnits="userSpaceOnUse">
<stop stop-color="#FD749B"/>
<stop offset="1" stop-color="#281AC8"/>
</linearGradient>
<clipPath id="clip0">
<rect width="271" height="208" fill="white"/>
</clipPath>
</defs>
</svg>
