<svg width="21" height="20" viewBox="0 0 21 20" fill="none" xmlns="http://www.w3.org/2000/svg">
<path d="M4.74399 1H16.7248C18.8214 1 20.4687 2.64736 20.4687 4.74399V11.1088C20.4687 13.2054 18.8214 14.8528 16.7248 14.8528H9.9107L5.04351 18.9712V14.8528H3.47103C2.1232 14.8528 1 13.7296 1 12.3817V4.74399C1 2.64736 2.64736 1 4.74399 1Z" stroke="#333333" stroke-width="0.8" stroke-linecap="round" stroke-linejoin="round"/>
<path d="M15.976 9.23704C16.8031 9.23704 17.4736 8.56655 17.4736 7.73945C17.4736 6.91235 16.8031 6.24185 15.976 6.24185C15.1489 6.24185 14.4784 6.91235 14.4784 7.73945C14.4784 8.56655 15.1489 9.23704 15.976 9.23704Z" fill="#333333"/>
<path d="M10.7344 8.48826C11.1479 8.48826 11.4832 8.15301 11.4832 7.73946C11.4832 7.32591 11.1479 6.99066 10.7344 6.99066C10.3208 6.99066 9.9856 7.32591 9.9856 7.73946C9.9856 8.15301 10.3208 8.48826 10.7344 8.48826Z" fill="#333333"/>
<path d="M6.2416 8.48826C6.65515 8.48826 6.99039 8.15301 6.99039 7.73946C6.99039 7.32591 6.65515 6.99066 6.2416 6.99066C5.82805 6.99066 5.4928 7.32591 5.4928 7.73946C5.4928 8.15301 5.82805 8.48826 6.2416 8.48826Z" fill="#333333"/>
</svg>
