<svg width="81" height="87" viewBox="0 0 81 87" fill="none" xmlns="http://www.w3.org/2000/svg">
<path d="M57.3664 18.5158H62.4165V23.5651C62.4165 25.4244 63.9236 26.9323 65.7829 26.9323H69.1494C71.0086 26.9323 72.5158 25.4244 72.5158 23.5651V18.5158H77.5651C79.4244 18.5158 80.9323 17.0087 80.9323 15.1494V11.7829C80.9323 9.92365 79.4244 8.41649 77.5651 8.41649H72.5158V3.36644C72.5158 1.50716 71.0086 0 69.1494 0H65.7829C63.9236 0 62.4165 1.50716 62.4165 3.36644V8.41649H57.3664C55.5072 8.41649 54 9.92365 54 11.7829V15.1494C54 17.0087 55.5072 18.5158 57.3664 18.5158ZM57.3664 11.7829H62.4165C64.2758 11.7829 65.7829 10.2758 65.7829 8.41649V3.36644H69.1494V8.41649C69.1494 10.2758 70.6565 11.7829 72.5158 11.7829H77.5651V15.1494H72.5158C70.6565 15.1494 69.1494 16.6565 69.1494 18.5158V23.5651H65.7829V18.5158C65.7829 16.6565 64.2758 15.1494 62.4165 15.1494H57.3664V11.7829Z" fill="white"/>
<path d="M67 58.1096C67 54.7208 65.161 51.6561 62.24 50.0518C62.3259 49.6558 62.3693 49.2513 62.3693 48.8415C62.3693 48.0006 62.1814 47.1731 61.821 46.4121C62.9393 44.7189 63.527 42.7696 63.527 40.7319C63.527 37.2313 61.7566 33.9841 58.8578 32.0778C58.8837 31.869 58.8963 31.6662 58.8963 31.4638C58.8963 29.66 58.0239 27.9634 56.5807 26.8906C56.5808 26.8703 56.581 26.8502 56.581 26.8297C56.581 22.649 53.7369 18.995 49.7437 17.9398C48.1663 14.9218 45.0289 13 41.6037 13C38.1004 13 35.0498 14.9727 33.5 17.8656C31.9502 14.9727 28.8996 13 25.3963 13C21.9711 13 18.8337 14.9218 17.2563 17.9398C13.2631 18.995 10.419 22.649 10.419 26.8297C10.419 26.8502 10.4192 26.8703 10.4193 26.8906C8.97612 27.9634 8.10367 29.66 8.10367 31.4638C8.10367 31.6662 8.11626 31.8688 8.14216 32.0778C5.24336 33.9841 3.473 37.2313 3.473 40.7319C3.473 42.7696 4.06066 44.7189 5.17897 46.4121C4.81865 47.1731 4.63067 48.0006 4.63067 48.8415C4.63067 49.2513 4.67394 49.6558 4.76004 50.0518C1.83895 51.6561 0 54.7208 0 58.1096C0 62.1566 2.66423 65.678 6.41073 66.8679C6.00062 67.7545 5.78834 68.7107 5.78834 69.6947C5.78834 72.7325 7.78372 75.3813 10.6304 76.2597C11.5267 80.4502 15.2612 83.5245 19.608 83.5245C20.2887 83.5245 20.9684 83.4467 21.6384 83.2926C22.8078 85.5456 25.136 87 27.7117 87C30.1402 87 32.2769 85.732 33.5 83.8239C34.7231 85.732 36.8598 87 39.2883 87C41.864 87 44.1922 85.5456 45.3616 83.2926C46.0316 83.4467 46.7113 83.5245 47.392 83.5245C51.7388 83.5245 55.4733 80.4502 56.3696 76.2597C59.2163 75.3813 61.2117 72.7325 61.2117 69.6947C61.2117 68.7107 60.9994 67.7545 60.5893 66.8679C64.3358 65.678 67 62.1566 67 58.1096ZM27.7117 84.8278C25.7161 84.8278 23.9369 83.5446 23.2842 81.6346C23.1907 81.3614 22.9924 81.1366 22.7331 81.0101C22.4738 80.8833 22.1747 80.8654 21.9021 80.9598C21.1506 81.2202 20.3787 81.3522 19.6078 81.3522C16.0956 81.3522 13.107 78.724 12.6559 75.2386C12.5956 74.7728 12.2429 74.3986 11.7817 74.3111C9.56667 73.8908 7.95896 71.9493 7.95896 69.6947C7.95896 68.8089 8.21669 67.9522 8.70667 67.191C8.8521 67.2634 9.01548 67.3053 9.18898 67.3053C10.8989 67.3053 12.5338 66.8429 13.9548 65.9768C14.404 69.3379 17.286 71.9393 20.7657 71.9393C24.5557 71.9393 27.6393 68.8535 27.6393 65.0607C27.6393 64.4608 27.1534 63.9746 26.554 63.9746C25.9546 63.9746 25.4687 64.4608 25.4687 65.0607C25.4687 67.6559 23.3588 69.7671 20.7657 69.7671C18.1725 69.7671 16.0626 67.6559 16.0626 65.0607C16.0626 64.7431 16.0943 64.4259 16.1567 64.1182C16.2367 63.7235 16.0913 63.3359 15.8097 63.0874C15.787 63.0603 15.7629 63.0341 15.7373 63.0089C15.3091 62.5891 14.6219 62.5961 14.2026 63.0246C12.8712 64.3842 11.0907 65.1331 9.18898 65.1331C9.02199 65.1331 8.8644 65.1719 8.72317 65.2394C8.58729 65.1486 8.43158 65.0863 8.26401 65.0641C4.79014 64.6057 2.17063 61.616 2.17063 58.1096C2.17063 55.2659 3.86632 52.7209 6.49075 51.6257C6.75644 51.5148 6.96713 51.3029 7.07668 51.0364C7.18622 50.77 7.1855 50.4711 7.07465 50.2052C6.89333 49.7699 6.8013 49.3111 6.8013 48.8415C6.8013 48.1684 6.99824 47.5067 7.37072 46.9281C7.61817 46.5436 7.5985 46.045 7.32138 45.6814C6.22376 44.2406 5.64363 42.5292 5.64363 40.7319C5.64363 37.7544 7.26509 35.0087 9.87519 33.5664C9.88185 33.5627 9.8872 33.5577 9.89372 33.554C11.0909 32.8972 12.4439 32.5499 13.8195 32.5499C16.1649 32.5499 18.4007 33.5604 19.9537 35.3224C20.1682 35.5658 20.4674 35.6901 20.768 35.6901C21.0231 35.6901 21.2791 35.6006 21.4854 35.4185C21.9349 35.0217 21.978 34.3355 21.5815 33.8855C19.617 31.6563 16.7878 30.3777 13.8197 30.3777C12.6164 30.3777 11.4266 30.5887 10.3054 30.9932C10.4494 29.9107 11.088 28.9626 12.0745 28.3982C12.4384 28.19 12.6501 27.7907 12.618 27.3725C12.6034 27.1812 12.5896 27.0006 12.5896 26.8297C12.5896 23.4954 14.9574 20.5998 18.2195 19.945C18.5632 19.8761 18.8525 19.6451 18.9962 19.325C20.1282 16.8024 22.6405 15.1722 25.3963 15.1722C29.2663 15.1722 32.4147 18.3229 32.4147 22.1957V43.3545C30.9481 41.7867 28.8641 40.8043 26.554 40.8043C25.2139 40.8043 23.9125 41.1338 22.747 41.7631C21.8131 41.1404 20.7237 40.8043 19.608 40.8043C19.0086 40.8043 18.5227 41.2906 18.5227 41.8904C18.5227 42.4902 19.0086 42.9765 19.608 42.9765C20.4608 42.9765 21.2933 43.2997 21.9521 43.8868C22.3227 44.217 22.8697 44.2535 23.2808 43.9759C24.2491 43.3222 25.3808 42.9767 26.554 42.9767C29.7856 42.9767 32.4147 45.6076 32.4147 48.8416V80.1215C32.4147 82.7165 30.3048 84.8278 27.7117 84.8278ZM58.7361 65.0641C58.5684 65.0863 58.4129 65.1486 58.277 65.2394C58.1356 65.1719 57.9782 65.1331 57.8112 65.1331C55.9093 65.1331 54.1288 64.3842 52.7976 63.0246C52.3782 62.5962 51.691 62.589 51.2628 63.0089C51.2372 63.034 51.2133 63.0602 51.1908 63.0871C50.9089 63.3356 50.7633 63.7235 50.8433 64.1184C50.9058 64.4261 50.9374 64.7431 50.9374 65.0608C50.9374 67.656 48.8275 69.7673 46.2343 69.7673C45.635 69.7673 45.149 70.2536 45.149 70.8534C45.149 71.4532 45.635 71.9395 46.2343 71.9395C49.714 71.9395 52.596 69.338 53.0452 65.9769C54.4662 66.8429 56.1011 67.3054 57.811 67.3054C57.9845 67.3054 58.1479 67.2636 58.2933 67.1912C58.7833 67.9522 59.041 68.8089 59.041 69.6949C59.041 71.9495 57.4333 73.891 55.2181 74.3111C54.7569 74.3986 54.4043 74.7728 54.3439 75.2386C53.8929 78.724 50.9042 81.3522 47.392 81.3522C46.6211 81.3522 45.8493 81.2202 45.0978 80.9598C44.8252 80.8654 44.5261 80.8833 44.2667 81.0101C44.0074 81.1366 43.8092 81.3615 43.7157 81.6346C43.0631 83.5446 41.2839 84.8278 39.2883 84.8278C36.6952 84.8278 34.5853 82.7165 34.5853 80.1213V57.804C36.0519 59.3718 38.1359 60.3542 40.446 60.3542C41.7861 60.3542 43.0875 60.0248 44.253 59.3954C45.1869 60.0181 46.2763 60.3542 47.392 60.3542C47.9914 60.3542 48.4773 59.8679 48.4773 59.2681C48.4773 58.6683 47.9914 58.182 47.392 58.182C46.5392 58.182 45.7067 57.8588 45.0479 57.2717C44.6773 56.9417 44.1304 56.905 43.7192 57.1826C42.7509 57.8363 41.6192 58.1819 40.446 58.1819C37.2144 58.1819 34.5853 55.5509 34.5853 52.3169V34.7884C35.2906 35.3483 36.1302 35.7457 37.0477 35.9225C37.0462 35.9808 37.0454 36.0395 37.0454 36.0978C37.0454 39.8907 40.1289 42.9765 43.919 42.9765C47.7091 42.9765 50.7927 39.8907 50.7927 36.0978C50.7927 35.498 50.3067 35.0117 49.7073 35.0117C49.108 35.0117 48.622 35.498 48.622 36.0978C48.622 38.6931 46.5122 40.8043 43.919 40.8043C41.3258 40.8043 39.216 38.6931 39.216 36.0978C39.216 35.778 39.2484 35.4575 39.3124 35.1457C39.3788 34.8212 39.2937 34.4839 39.0811 34.2299C38.8685 33.976 38.5506 33.8328 38.2207 33.8416C38.1642 33.8432 38.1159 33.848 38.0779 33.8528C36.1473 33.8244 34.5853 32.2439 34.5853 30.3053V22.1957C34.5853 18.3229 37.7337 15.1722 41.6037 15.1722C44.3595 15.1722 46.8718 16.8024 48.004 19.3252C48.1477 19.6452 48.4368 19.8762 48.7806 19.9451C52.0426 20.5998 54.4104 23.4954 54.4104 26.8297C54.4104 27.0006 54.3966 27.1812 54.382 27.3725C54.35 27.7907 54.5616 28.1901 54.9255 28.3982C55.912 28.9626 56.5506 29.9107 56.6946 30.9932C55.5732 30.5887 54.3835 30.3777 53.1803 30.3777C52.581 30.3777 52.095 30.864 52.095 31.4638C52.095 32.0636 52.581 32.5499 53.1803 32.5499C54.5561 32.5499 55.909 32.897 57.1061 33.554C57.1127 33.5578 57.1181 33.5627 57.1247 33.5664C59.7349 35.0087 61.3564 37.7544 61.3564 40.7319C61.3564 42.5292 60.7762 44.2406 59.6786 45.6814C59.4015 46.0451 59.3818 46.5436 59.6293 46.9281C60.0018 47.5067 60.1987 48.1682 60.1987 48.8415C60.1987 49.3111 60.1067 49.7699 59.9254 50.2052C59.8145 50.4711 59.8138 50.77 59.9233 51.0364C60.0329 51.3029 60.2436 51.5148 60.5092 51.6257C63.1337 52.7209 64.8294 55.2659 64.8294 58.1096C64.8294 61.616 62.2099 64.6057 58.7361 65.0641Z" fill="white"/>
</svg>
