<svg width="109" height="109" viewBox="0 0 109 109" fill="none" xmlns="http://www.w3.org/2000/svg">
<g clip-path="url(#clip0)">
<path d="M104.819 55.9873H56.6334C54.3314 55.9873 52.4589 57.8603 52.4589 60.1627V89.7377C52.4589 92.0435 54.3317 93.9193 56.6334 93.9193H83.3425L97.8061 106.76C98.2035 107.113 98.7085 107.297 99.2199 107.297C99.5149 107.297 99.8123 107.236 100.092 107.11C100.857 106.766 101.348 106.006 101.348 105.168V93.9193H104.82C107.125 93.9193 109 92.0435 109 89.7377V60.1627C109 57.8603 107.124 55.9873 104.819 55.9873ZM104.742 89.6612H99.2194C98.0436 89.6612 97.0905 90.6144 97.0905 91.7902V100.431L85.5644 90.1982C85.1748 89.8522 84.672 89.6612 84.151 89.6612H56.7165V60.2451H104.742V89.6612Z" fill="white"/>
<path d="M57.3681 46.5977C57.3681 45.4219 56.4149 44.4688 55.2392 44.4688H28.1801C27.659 44.4688 27.1559 44.66 26.7663 45.0059L13.0319 57.2052V46.5977C13.0319 45.4219 12.0788 44.4688 10.903 44.4688H4.47624C4.35979 44.4688 4.25781 44.3664 4.25781 44.2493V6.18043C4.25781 6.06334 4.35979 5.96094 4.47624 5.96094H96.22C96.3364 5.96094 96.4386 6.06334 96.4386 6.18043V44.2493C96.4386 44.3662 96.3364 44.4688 96.22 44.4688H74.3567C73.1809 44.4688 72.2278 45.4219 72.2278 46.5977C72.2278 47.7735 73.1809 48.7266 74.3567 48.7266H96.22C98.6882 48.7266 100.696 46.718 100.696 44.2493V6.18043C100.696 3.71175 98.6882 1.70312 96.22 1.70312H4.47624C2.0082 1.70312 0 3.71175 0 6.18043V44.2493C0 46.718 2.0082 48.7266 4.47624 48.7266H8.77407V61.9435C8.77407 62.7817 9.26606 63.5419 10.0306 63.8855C10.3103 64.0111 10.6075 64.0724 10.9026 64.0724C11.4141 64.0724 11.9193 63.8881 12.3168 63.5353L28.9889 48.7266H55.2389C56.415 48.7266 57.3681 47.7735 57.3681 46.5977Z" fill="white"/>
<path d="M24.2698 35.8921C25.4456 35.8921 26.3987 34.939 26.3987 33.7632V16.6666C26.3987 15.4908 25.4456 14.5377 24.2698 14.5377C23.094 14.5377 22.1409 15.4908 22.1409 16.6666V23.0859H15.084V16.6666C15.084 15.4908 14.1309 14.5377 12.9551 14.5377C11.7793 14.5377 10.8262 15.4908 10.8262 16.6666V33.7632C10.8262 34.939 11.7793 35.8921 12.9551 35.8921C14.1309 35.8921 15.084 34.939 15.084 33.7632V27.3437H22.1409V33.763C22.1409 34.939 23.094 35.8921 24.2698 35.8921Z" fill="white"/>
<path d="M42.295 18.7955C43.4708 18.7955 44.4239 17.8424 44.4239 16.6666C44.4239 15.4908 43.4708 14.5377 42.295 14.5377H33.0381C31.8623 14.5377 30.9092 15.4908 30.9092 16.6666V33.7632C30.9092 34.939 31.8623 35.8921 33.0381 35.8921H42.295C43.4708 35.8921 44.4239 34.939 44.4239 33.7632C44.4239 32.5874 43.4708 31.6343 42.295 31.6343H35.167V27.3437H42.295C43.4708 27.3437 44.4239 26.3906 44.4239 25.2148C44.4239 24.039 43.4708 23.0859 42.295 23.0859H35.167V18.7955H42.295Z" fill="white"/>
<path d="M51.0634 14.5377C49.8876 14.5377 48.9344 15.4908 48.9344 16.6666V33.7632C48.9344 34.939 49.8876 35.8921 51.0634 35.8921H60.3205C61.4963 35.8921 62.4494 34.939 62.4494 33.7632C62.4494 32.5874 61.4963 31.6343 60.3205 31.6343H53.1923V16.6666C53.1923 15.4908 52.2392 14.5377 51.0634 14.5377Z" fill="white"/>
<path d="M81.0962 21.3874C81.0962 17.6106 78.0242 14.5377 74.2481 14.5377H69.0885C67.9127 14.5377 66.9596 15.4908 66.9596 16.6666V26.1083V33.7632C66.9596 34.939 67.9127 35.8921 69.0885 35.8921C70.2643 35.8921 71.2174 34.939 71.2174 33.7632V28.2372H74.2481C78.0242 28.2372 81.0962 25.1645 81.0962 21.3874ZM71.2174 18.7955H74.2481C75.6762 18.7955 76.8384 19.9581 76.8384 21.3874C76.8384 22.8168 75.6764 23.9794 74.2481 23.9794H71.2174V18.7955Z" fill="white"/>
<path d="M87.7416 27.6094C88.9174 27.6094 89.8705 26.6563 89.8705 25.4805V16.6666C89.8705 15.4908 88.9174 14.5377 87.7416 14.5377C86.5658 14.5377 85.6127 15.4908 85.6127 16.6666V25.4805C85.6127 26.6563 86.5658 27.6094 87.7416 27.6094Z" fill="white"/>
<path d="M85.6127 33.7632C85.6127 34.939 86.5658 35.8861 87.7416 35.8861C88.9174 35.8861 89.8705 34.927 89.8705 33.7513C89.8705 32.5755 88.9174 31.6223 87.7416 31.6223C86.5658 31.6223 85.6127 32.5755 85.6127 33.7513V33.7632Z" fill="white"/>
<path d="M67.5376 77.079C68.7134 77.079 69.6665 76.1167 69.6665 74.9411C69.6665 73.7656 68.7134 72.8122 67.5376 72.8122C66.3618 72.8122 65.4087 73.7653 65.4087 74.9411V74.9592C65.4087 76.135 66.3618 77.079 67.5376 77.079Z" fill="white"/>
<path d="M80.7294 77.079C81.9052 77.079 82.8583 76.1167 82.8583 74.9411C82.8583 73.7656 81.9052 72.8122 80.7294 72.8122C79.5536 72.8122 78.6005 73.7653 78.6005 74.9411V74.9592C78.6005 76.135 79.5536 77.079 80.7294 77.079Z" fill="white"/>
<path d="M93.9148 77.079C95.0906 77.079 96.0437 76.1167 96.0437 74.9411C96.0437 73.7656 95.0906 72.8122 93.9148 72.8122C92.739 72.8122 91.7859 73.7653 91.7859 74.9411V74.9592C91.7859 76.135 92.739 77.079 93.9148 77.079Z" fill="white"/>
<path d="M62.6691 46.5977C62.6691 47.7735 63.6222 48.7266 64.798 48.7266H64.8101C65.9859 48.7266 66.933 47.7735 66.933 46.5977C66.933 45.4219 65.9738 44.4688 64.798 44.4688C63.6222 44.4688 62.6691 45.4219 62.6691 46.5977Z" fill="white"/>
</g>
<defs>
<clipPath id="clip0">
<rect width="109" height="109" fill="white"/>
</clipPath>
</defs>
</svg>
